# xmcd
#
# Track frame offsets:
#	150
#	11512
#	21332
#	32725
#	42935
#	53462
#	64860
#	75900
#	86482
#	96512
#	105100
#	113590
#	125825
#	136357
#	148292
#	160257
#	170690
#	182215
#	191595
#	203610
#	214195
#	223727
#	234120
#	244410
#	254102
#	263777
#	275275
#	283252
#	293980
#	303110
#	312340
#
# Disc length: 4233 seconds
#
# Revision: 1
# Processed by: cddbd v1.4PL0 Copyright (c) Steve Scherf et al.
# Submitted via: audiograbber 1.80
#
DISCID=c910871f
DTITLE=davis sisters - memories disc 2
DYEAR=1900
DGENRE=
TTITLE0=takin' time out for tears 1993
TTITLE1=gotta git a-goin' 1993
TTITLE2=i've closed the door 1993
TTITLE3=she loves him and he loves me 1993
TTITLE4=i've closed the door 1993
TTITLE5=she loves him and he loves me 1993
TTITLE6=single girl 1993
TTITLE7=show me 1954
TTITLE8=the christmas boogie 1954
TTITLE9=fiddle diddle boogie 1955
TTITLE10=iverlovin' 1955
TTITLE11=come back to me 1993
TTITLE12=tomorrow's just another day to cry 1993
TTITLE13=tomorrow i'll cry over you 1955
TTITLE14=come back to me 1955
TTITLE15=tomorrow's just another day to cry 1955
TTITLE16=when i stop loving you 1993
TTITLE17=i'll get him back 1955
TTITLE18=it's the girl who gets the blame 1993
TTITLE19=toodle-ooh (to you) 1993
TTITLE20=baby, be mine 1955
TTITLE21=blues for company 1956
TTITLE22=it's the girl who gets the blame 1955
TTITLE23=lonely and blue 1956
TTITLE24=let's go steady 1993
TTITLE25=lying brown eyes 1956
TTITLE26=everywhere he went 1993
TTITLE27=take my hand precious lord 1993
TTITLE28=dig a little deeper in god's love 1993
TTITLE29=dig a little deeper in god's love 1993
TTITLE30=it wasn't god who made honky tonk angels             
EXTD=
EXTT0=
EXTT1=
EXTT2=
EXTT3=
EXTT4=
EXTT5=
EXTT6=
EXTT7=
EXTT8=
EXTT9=
EXTT10=
EXTT11=
EXTT12=
EXTT13=
EXTT14=
EXTT15=
EXTT16=
EXTT17=
EXTT18=
EXTT19=
EXTT20=
EXTT21=
EXTT22=
EXTT23=
EXTT24=
EXTT25=
EXTT26=
EXTT27=
EXTT28=
EXTT29=
EXTT30=
PLAYORDER=
